<?xml version="1.0" encoding="iso-8859-1"?>
<!-- Uploaded to: SVG Repo, www.svgrepo.com, Generator: SVG Repo Mixer Tools -->
<svg height="800px" width="800px" version="1.1" id="Layer_1" xmlns="http://www.w3.org/2000/svg" xmlns:xlink="http://www.w3.org/1999/xlink" 
	 viewBox="0 0 511.6 511.6" xml:space="preserve">
<path style="fill:#E6E9ED;" d="M437.002,74.613c-17.643,0-31.975-14.348-31.975-31.975c0-17.635,14.332-31.976,31.975-31.976
	c17.611,0,31.975,14.341,31.975,31.976C468.977,60.266,454.613,74.613,437.002,74.613z"/>
<path style="fill:#FFCE54;" d="M437.002,0h-21.327h-19.298H74.606C51.062,0,31.975,19.094,31.975,42.639v426.338h383.7V85.27h21.327
	c23.544,0,42.623-19.087,42.623-42.631C479.625,19.094,460.546,0,437.002,0z M437.002,63.95c-11.771,0-21.327-9.556-21.327-21.312
	c0-11.757,9.556-21.319,21.327-21.319c11.74,0,21.296,9.562,21.296,21.319S448.742,63.95,437.002,63.95z"/>
<path style="fill:#F5F7FA;" d="M117.244,0c-23.528,0-42.607,19.062-42.63,42.584c0,0.016-0.008,0.039-0.008,0.055v383.7h298.446V0
	H117.244z"/>
<polygon style="fill:#DA4453;" points="373.052,511.6 330.413,500.952 287.776,511.6 287.776,420.016 373.052,420.016 "/>
<path style="fill:#ED5564;" d="M394.348,404.684c0,35.316-28.618,63.95-63.935,63.95c-35.331,0-63.958-28.634-63.958-63.95
	s28.627-63.95,63.958-63.95C365.73,340.734,394.348,369.367,394.348,404.684z"/>
<path style="fill:#F5F7FA;" d="M351.725,404.684c0,11.771-9.555,21.327-21.312,21.327c-11.772,0-21.312-9.556-21.312-21.327
	c0-11.772,9.539-21.312,21.312-21.312C342.17,383.372,351.725,392.911,351.725,404.684z"/>
<g>
	<path style="fill:#656D78;" d="M319.75,149.219H127.9c-5.886,0-10.656,4.778-10.656,10.656c0,5.894,4.77,10.663,10.656,10.663
		h191.85c5.886,0,10.647-4.77,10.647-10.663C330.398,153.997,325.636,149.219,319.75,149.219z"/>
	<path style="fill:#656D78;" d="M127.9,106.588h191.85c5.886,0,10.647-4.77,10.647-10.663c0-5.878-4.762-10.655-10.647-10.655H127.9
		c-5.886,0-10.656,4.777-10.656,10.655C117.244,101.819,122.014,106.588,127.9,106.588z"/>
	<path style="fill:#656D78;" d="M319.75,213.169H127.9c-5.886,0-10.656,4.77-10.656,10.656c0,5.894,4.77,10.663,10.656,10.663
		h191.85c5.886,0,10.647-4.77,10.647-10.663C330.398,217.939,325.636,213.169,319.75,213.169z"/>
	<path style="fill:#656D78;" d="M223.825,277.127H127.9c-5.886,0-10.656,4.762-10.656,10.648c0,5.901,4.77,10.663,10.656,10.663
		h95.925c5.886,0,10.656-4.762,10.656-10.663C234.481,281.889,229.711,277.127,223.825,277.127z"/>
</g>
<path style="fill:#F5F7FA;" d="M415.675,0h-42.623v42.639C373.052,19.094,392.131,0,415.675,0z"/>
</svg>